<mxfile host="app.diagrams.net" agent="Mozilla/5.0 (Windows NT 10.0; Win64; x64) AppleWebKit/537.36 (KHTML, like Gecko) Chrome/133.0.0.0 Safari/537.36" version="26.0.16">
  <diagram name="PÃ¡gina-1" id="l0nBqizwXKlEtMd584b9">
    <mxGraphModel dx="1078" dy="946" grid="0" gridSize="10" guides="1" tooltips="1" connect="1" arrows="1" fold="1" page="0" pageScale="1" pageWidth="827" pageHeight="1169" math="0" shadow="0">
      <root>
        <mxCell id="0" />
        <mxCell id="1" parent="0" />
        <mxCell id="utmd6LyGiTf1EZyE7J0i-10" value="Guarderia" style="shape=table;startSize=30;container=1;collapsible=0;childLayout=tableLayout;" vertex="1" parent="1">
          <mxGeometry x="283" y="-12" width="148" height="184.88" as="geometry" />
        </mxCell>
        <mxCell id="utmd6LyGiTf1EZyE7J0i-11" value="" style="shape=tableRow;horizontal=0;startSize=0;swimlaneHead=0;swimlaneBody=0;strokeColor=inherit;top=0;left=0;bottom=0;right=0;collapsible=0;dropTarget=0;fillColor=none;points=[[0,0.5],[1,0.5]];portConstraint=eastwest;" vertex="1" parent="utmd6LyGiTf1EZyE7J0i-10">
          <mxGeometry y="30" width="148" height="77" as="geometry" />
        </mxCell>
        <mxCell id="utmd6LyGiTf1EZyE7J0i-12" value="" style="shape=partialRectangle;html=1;whiteSpace=wrap;connectable=0;strokeColor=inherit;overflow=hidden;fillColor=none;top=0;left=0;bottom=0;right=0;pointerEvents=1;" vertex="1" parent="utmd6LyGiTf1EZyE7J0i-11">
          <mxGeometry width="148" height="77" as="geometry">
            <mxRectangle width="148" height="77" as="alternateBounds" />
          </mxGeometry>
        </mxCell>
        <mxCell id="utmd6LyGiTf1EZyE7J0i-13" value="" style="shape=tableRow;horizontal=0;startSize=0;swimlaneHead=0;swimlaneBody=0;strokeColor=inherit;top=0;left=0;bottom=0;right=0;collapsible=0;dropTarget=0;fillColor=none;points=[[0,0.5],[1,0.5]];portConstraint=eastwest;" vertex="1" parent="utmd6LyGiTf1EZyE7J0i-10">
          <mxGeometry y="107" width="148" height="78" as="geometry" />
        </mxCell>
        <mxCell id="utmd6LyGiTf1EZyE7J0i-14" value="" style="shape=partialRectangle;html=1;whiteSpace=wrap;connectable=0;strokeColor=inherit;overflow=hidden;fillColor=none;top=0;left=0;bottom=0;right=0;pointerEvents=1;" vertex="1" parent="utmd6LyGiTf1EZyE7J0i-13">
          <mxGeometry width="148" height="78" as="geometry">
            <mxRectangle width="148" height="78" as="alternateBounds" />
          </mxGeometry>
        </mxCell>
        <mxCell id="utmd6LyGiTf1EZyE7J0i-15" value="Estudiante" style="shape=table;startSize=30;container=1;collapsible=0;childLayout=tableLayout;" vertex="1" parent="1">
          <mxGeometry x="-95" y="-47" width="237" height="262" as="geometry" />
        </mxCell>
        <mxCell id="utmd6LyGiTf1EZyE7J0i-16" value="" style="shape=tableRow;horizontal=0;startSize=0;swimlaneHead=0;swimlaneBody=0;strokeColor=inherit;top=0;left=0;bottom=0;right=0;collapsible=0;dropTarget=0;fillColor=none;points=[[0,0.5],[1,0.5]];portConstraint=eastwest;" vertex="1" parent="utmd6LyGiTf1EZyE7J0i-15">
          <mxGeometry y="30" width="237" height="116" as="geometry" />
        </mxCell>
        <mxCell id="utmd6LyGiTf1EZyE7J0i-17" value="" style="shape=partialRectangle;html=1;whiteSpace=wrap;connectable=0;strokeColor=inherit;overflow=hidden;fillColor=none;top=0;left=0;bottom=0;right=0;pointerEvents=1;" vertex="1" parent="utmd6LyGiTf1EZyE7J0i-16">
          <mxGeometry width="237" height="116" as="geometry">
            <mxRectangle width="237" height="116" as="alternateBounds" />
          </mxGeometry>
        </mxCell>
        <mxCell id="utmd6LyGiTf1EZyE7J0i-18" value="" style="shape=tableRow;horizontal=0;startSize=0;swimlaneHead=0;swimlaneBody=0;strokeColor=inherit;top=0;left=0;bottom=0;right=0;collapsible=0;dropTarget=0;fillColor=none;points=[[0,0.5],[1,0.5]];portConstraint=eastwest;" vertex="1" parent="utmd6LyGiTf1EZyE7J0i-15">
          <mxGeometry y="146" width="237" height="116" as="geometry" />
        </mxCell>
        <mxCell id="utmd6LyGiTf1EZyE7J0i-19" value="" style="shape=partialRectangle;html=1;whiteSpace=wrap;connectable=0;strokeColor=inherit;overflow=hidden;fillColor=none;top=0;left=0;bottom=0;right=0;pointerEvents=1;" vertex="1" parent="utmd6LyGiTf1EZyE7J0i-18">
          <mxGeometry width="237" height="116" as="geometry">
            <mxRectangle width="237" height="116" as="alternateBounds" />
          </mxGeometry>
        </mxCell>
        <mxCell id="utmd6LyGiTf1EZyE7J0i-21" value="" style="endArrow=diamondThin;endFill=1;endSize=24;html=1;rounded=0;fontSize=12;curved=1;exitX=0.996;exitY=0.845;exitDx=0;exitDy=0;exitPerimeter=0;entryX=0;entryY=0.857;entryDx=0;entryDy=0;entryPerimeter=0;" edge="1" parent="1" source="utmd6LyGiTf1EZyE7J0i-16" target="utmd6LyGiTf1EZyE7J0i-11">
          <mxGeometry width="160" relative="1" as="geometry">
            <mxPoint x="139" y="291" as="sourcePoint" />
            <mxPoint x="299" y="291" as="targetPoint" />
            <Array as="points" />
          </mxGeometry>
        </mxCell>
      </root>
    </mxGraphModel>
  </diagram>
</mxfile>
